<?xml version="1.0" standalone="no"?>
<!DOCTYPE svg PUBLIC "-//W3C//DTD SVG 20010904//EN"
 "http://www.w3.org/TR/2001/REC-SVG-20010904/DTD/svg10.dtd">
<svg version="1.0" xmlns="http://www.w3.org/2000/svg"
 width="500.000000pt" height="500.000000pt" viewBox="0 0 500.000000 500.000000"
 preserveAspectRatio="xMidYMid meet">
<metadata>
Created by potrace 1.14, written by Peter Selinger 2001-2017
</metadata>
<g transform="translate(0.000000,500.000000) scale(0.100000,-0.100000)"
fill="#000000" stroke="none">
<path d="M2295 3935 c-450 -59 -808 -301 -1014 -687 -60 -112 -122 -294 -147
-433 -24 -133 -24 -436 0 -579 79 -469 321 -810 713 -1005 116 -58 219 -92
374 -123 146 -29 421 -31 569 -5 295 51 533 170 725 362 107 107 179 208 245
348 46 97 100 257 100 298 0 18 -15 19 -418 19 l-417 0 -25 -47 c-33 -62 -118
-153 -180 -193 -109 -70 -300 -106 -430 -82 -223 42 -380 197 -452 449 -20 68
-23 101 -23 248 1 145 4 182 23 255 64 234 209 392 409 445 82 22 243 22 318
1 140 -41 268 -139 330 -253 l28 -53 423 0 423 0 -25 92 c-127 475 -499 821
-992 923 -167 34 -385 42 -557 20z"/>
</g>
</svg>
